<?xml version="1.0" standalone="no"?>
<!DOCTYPE svg PUBLIC "-//W3C//DTD SVG 1.1//EN" "http://www.w3.org/Graphics/SVG/1.1/DTD/svg11.dtd">
<svg xmlns="http://www.w3.org/2000/svg" viewBox="33.655 87.536 319.901 206.784" width="319.9010009765625" height="206.78399658203125">
  <defs>
    <clipPath id="93e4aae1cc">
      <path d="M 145.324219 201 L 220 201 L 220 291.671875 L 145.324219 291.671875 Z M 145.324219 201 " clip-rule="nonzero"/>
    </clipPath>
    <clipPath id="e1d93c53bc">
      <path d="M 224 217 L 225.574219 217 L 225.574219 219 L 224 219 Z M 224 217 " clip-rule="nonzero"/>
    </clipPath>
  </defs>
  <g fill="#ffffff" fill-opacity="1">
    <g transform="translate(210.736041, 233.761949)">
      <g>
        <path d="M 8.418 -70.16 C 8.418 -112.254 35.922 -143.125 70.859 -143.125 C 102.992 -143.125 113.938 -126.426 113.938 -113.656 C 113.938 -92.977 94 -81.736 82.379 -71.001 L 68.423 -71.001 C 76.712 -88.636 105.66 -97.226 105.66 -114.781 C 105.66 -131.477 94.293 -141.441 70.859 -141.441 C 41.816 -141.441 21.047 -111.133 21.047 -70.16 C 21.047 -69.956 21.047 -69.751 21.049 -69.547 L 8.42 -69.547 C 8.419 -69.751 8.418 -69.955 8.418 -70.16 Z M 70.859 1.121 C 102.012 1.121 110.852 -22.449 110.852 -22.449 L 112.395 -22.449 L 112.395 -3.648 C 101.168 0 88.82 2.805 70.859 2.805 C 44.338 2.805 22.1 -14.983 12.925 -41.968 L 24.953 -41.968 C 32.578 -16.029 50.487 1.121 70.859 1.121 Z" style="fill: rgb(0, 0, 0);"/>
      </g>
    </g>
  </g>
  <g clip-path="url(#93e4aae1cc)">
    <path d="M 217.855469 201.660156 C 216.9375 201.773438 216.136719 202.378906 215.667969 203.15625 C 215.066406 204.160156 215.066406 205.414062 215.453125 206.492188 C 215.417969 206.394531 215.007812 206.332031 214.917969 206.316406 C 214.726562 206.285156 214.535156 206.285156 214.34375 206.3125 C 213.984375 206.359375 213.605469 206.496094 213.3125 206.710938 C 213.054688 206.910156 212.785156 207.058594 212.566406 207.3125 C 212.34375 207.558594 212.164062 207.835938 211.96875 208.101562 C 211.621094 208.574219 211.285156 209.054688 210.953125 209.535156 C 209.617188 211.46875 208.359375 213.457031 207.089844 215.429688 C 206.949219 215.648438 206.8125 215.863281 206.671875 216.082031 C 206.550781 216.097656 206.4375 216.21875 206.492188 216.363281 C 206.5 216.382812 206.402344 216.503906 206.390625 216.523438 C 205.707031 217.59375 205.03125 218.667969 204.367188 219.75 C 203.722656 220.808594 203.089844 221.871094 202.472656 222.949219 C 202.269531 223.300781 202.070312 223.65625 201.871094 224.015625 C 201.261719 225.109375 200.671875 226.210938 200.113281 227.332031 C 199.613281 228.335938 199.074219 229.34375 198.71875 230.414062 C 198.410156 231.332031 198.324219 232.382812 198.921875 233.203125 C 195.699219 236.140625 192.480469 239.078125 189.28125 242.039062 C 188.429688 242.828125 187.582031 243.625 186.730469 244.417969 C 182.074219 244.003906 177.394531 243.8125 172.71875 243.945312 C 168.164062 244.070312 163.617188 244.5 159.132812 245.300781 C 156.875 245.703125 154.632812 246.199219 152.417969 246.800781 C 151.308594 247.101562 150.210938 247.429688 149.117188 247.78125 C 148.3125 248.042969 147.25 248.257812 146.714844 248.984375 C 146.21875 249.65625 146.421875 250.546875 146.925781 251.15625 C 147.53125 251.898438 148.535156 252.121094 149.433594 252.265625 C 151.796875 252.648438 154.164062 253 156.53125 253.351562 C 161.246094 254.050781 165.972656 254.695312 170.714844 255.191406 C 172.171875 255.34375 173.628906 255.476562 175.089844 255.597656 C 175.0625 255.625 175.035156 255.648438 175.003906 255.679688 C 173.566406 257.113281 172.113281 258.542969 170.8125 260.109375 C 168.375 263.03125 166.398438 266.699219 166.796875 270.628906 C 167.152344 274.121094 169.578125 277.015625 172.695312 278.492188 C 175.941406 280.03125 179.730469 280.027344 183.105469 278.929688 C 186.519531 277.820312 189.433594 275.589844 191.652344 272.796875 C 193.921875 269.945312 195.480469 266.589844 196.496094 263.105469 C 197.207031 260.664062 197.664062 258.167969 197.996094 255.648438 C 198.0625 255.640625 198.128906 255.636719 198.195312 255.628906 C 202.101562 255.121094 205.996094 254.152344 209.457031 252.226562 C 210.214844 251.804688 210.941406 251.332031 211.640625 250.824219 C 211.351562 254.839844 210.839844 258.84375 209.90625 262.765625 C 208.96875 266.71875 207.601562 270.582031 205.660156 274.164062 C 203.867188 277.472656 201.59375 280.539062 198.824219 283.101562 C 196.050781 285.664062 192.785156 287.644531 189.242188 288.945312 C 185.710938 290.234375 181.945312 290.863281 178.191406 290.8125 C 174.503906 290.757812 170.851562 290.027344 167.421875 288.675781 C 164.078125 287.355469 160.957031 285.457031 158.210938 283.132812 C 155.484375 280.824219 153.117188 278.09375 151.242188 275.050781 C 149.167969 271.691406 147.695312 267.976562 146.832031 264.125 C 145.964844 260.253906 146.046875 256.375 146.410156 252.425781 C 146.5 251.4375 146.6875 250.433594 146.851562 249.457031 C 146.898438 249.191406 146.496094 249.078125 146.449219 249.34375 C 145.773438 253.296875 145.324219 257.226562 145.878906 261.199219 C 146.4375 265.195312 147.632812 269.105469 149.453125 272.707031 C 151.125 276.019531 153.335938 279.050781 155.976562 281.65625 C 158.550781 284.195312 161.527344 286.34375 164.773438 287.953125 C 168.078125 289.589844 171.652344 290.660156 175.324219 291.054688 C 179.113281 291.460938 182.980469 291.164062 186.667969 290.191406 C 190.34375 289.21875 193.847656 287.5625 196.882812 285.265625 C 199.902344 282.980469 202.445312 280.113281 204.5 276.9375 C 206.667969 273.585938 208.285156 269.902344 209.445312 266.085938 C 210.730469 261.855469 211.457031 257.472656 211.875 253.074219 C 211.960938 252.160156 212.03125 251.25 212.09375 250.335938 C 212.136719 249.6875 211.667969 249.503906 211.15625 249.117188 C 210.804688 248.855469 210.429688 248.628906 210.035156 248.433594 C 209.222656 248.027344 208.351562 247.761719 207.472656 247.550781 C 205.292969 247.03125 203.066406 246.679688 200.859375 246.300781 C 200.203125 246.191406 199.546875 246.089844 198.886719 245.980469 C 199.113281 243.132812 199.375 240.289062 199.851562 237.472656 C 200.027344 236.429688 200.300781 235.082031 200.542969 234.054688 C 200.605469 233.792969 200.203125 233.679688 200.140625 233.941406 C 199.234375 237.765625 198.789062 242 198.476562 245.914062 C 197.925781 245.824219 197.371094 245.742188 196.820312 245.660156 C 197.652344 242.625 198.488281 239.589844 199.320312 236.554688 C 199.554688 235.703125 199.789062 234.851562 200.023438 233.996094 C 200.347656 234.089844 200.695312 234.089844 201.03125 233.941406 C 201.429688 233.769531 201.722656 233.4375 201.96875 233.089844 C 202.296875 232.621094 202.582031 232.121094 202.882812 231.636719 C 205.453125 227.515625 208.027344 223.398438 210.589844 219.273438 C 211.796875 217.335938 212.984375 215.378906 214.058594 213.363281 C 214.601562 212.339844 215.113281 211.300781 215.582031 210.242188 C 215.941406 209.425781 216.332031 208.53125 216.230469 207.621094 C 216.191406 207.296875 216.085938 207.007812 215.914062 206.746094 C 216.800781 206.535156 217.632812 206.125 218.335938 205.546875 C 219.066406 204.941406 219.863281 204.035156 219.769531 203.019531 C 219.679688 202.035156 218.777344 201.542969 217.855469 201.660156 Z M 187.488281 244.273438 C 190.644531 241.335938 193.820312 238.425781 197.003906 235.523438 C 197.734375 234.855469 198.464844 234.1875 199.199219 233.519531 C 199.269531 233.585938 199.347656 233.652344 199.429688 233.710938 C 199.335938 233.882812 199.238281 234.050781 199.140625 234.222656 C 199.058594 234.355469 198.996094 234.5 198.90625 234.628906 C 198.867188 234.695312 198.820312 234.753906 198.78125 234.824219 C 198.675781 234.992188 198.570312 235.164062 198.464844 235.335938 C 198.25 235.675781 198.03125 236.011719 197.808594 236.347656 C 197.339844 237.042969 196.859375 237.726562 196.359375 238.398438 C 195.859375 239.070312 195.339844 239.730469 194.8125 240.378906 C 194.285156 241.027344 193.746094 241.664062 193.199219 242.289062 C 192.4375 243.164062 191.65625 244.011719 190.867188 244.855469 C 189.671875 244.71875 188.476562 244.585938 187.277344 244.472656 C 187.347656 244.410156 187.417969 244.339844 187.488281 244.273438 Z M 185.09375 256.136719 C 185.953125 256.15625 186.820312 256.164062 187.683594 256.167969 C 186.941406 257.363281 186.183594 258.546875 185.402344 259.71875 C 183.648438 262.363281 181.8125 264.953125 179.898438 267.484375 C 177.96875 270.039062 175.953125 272.53125 173.867188 274.960938 C 173.605469 275.261719 172.878906 276.269531 172.617188 276.570312 C 172.605469 276.582031 172.601562 276.597656 172.59375 276.613281 C 171.722656 275.886719 171.433594 274.671875 171.472656 273.527344 C 171.527344 271.941406 172.082031 270.390625 172.644531 268.921875 C 173.886719 265.695312 175.6875 262.703125 177.742188 259.929688 C 178.746094 258.566406 179.816406 257.257812 180.921875 255.984375 C 182.308594 256.054688 183.703125 256.109375 185.09375 256.136719 Z M 181.273438 255.582031 C 182.359375 254.347656 183.476562 253.144531 184.613281 251.957031 C 186.746094 249.726562 188.921875 247.539062 191.035156 245.289062 C 191.925781 245.394531 192.816406 245.507812 193.710938 245.628906 C 192.664062 247.636719 191.578125 249.625 190.445312 251.585938 C 189.636719 252.984375 188.804688 254.371094 187.953125 255.746094 C 185.722656 255.746094 183.5 255.6875 181.273438 255.582031 Z M 179.421875 268.792969 C 181.378906 266.253906 183.253906 263.65625 185.046875 261 C 186.121094 259.410156 187.160156 257.796875 188.175781 256.167969 C 189.960938 256.171875 191.753906 256.136719 193.539062 256.039062 L 193.210938 257.238281 C 192.3125 260.519531 191.433594 263.859375 189.820312 266.871094 C 189.023438 268.363281 188.039062 269.753906 186.828125 270.9375 C 185.585938 272.152344 184.144531 273.132812 182.636719 273.988281 C 181.128906 274.839844 179.558594 275.578125 177.980469 276.296875 C 176.585938 276.933594 174.8125 277.644531 173.289062 277.039062 C 173.15625 276.988281 173.039062 276.917969 172.921875 276.851562 C 175.011719 274.457031 177.488281 271.304688 179.421875 268.792969 Z M 188.886719 255.746094 C 188.738281 255.75 188.585938 255.746094 188.4375 255.746094 C 189.019531 254.804688 189.59375 253.863281 190.15625 252.910156 C 191.550781 250.539062 192.875 248.132812 194.140625 245.691406 C 194.859375 245.789062 195.578125 245.890625 196.296875 245.996094 C 195.417969 249.199219 194.539062 252.40625 193.660156 255.609375 C 192.070312 255.695312 190.476562 255.734375 188.886719 255.746094 Z M 193.910156 245.246094 C 193.066406 245.132812 192.222656 245.023438 191.378906 244.921875 C 191.597656 244.683594 191.820312 244.449219 192.042969 244.210938 C 194.113281 241.949219 196.097656 239.589844 197.832031 237.058594 C 196.914062 239.125 195.957031 241.171875 194.949219 243.199219 C 194.609375 243.882812 194.261719 244.566406 193.910156 245.246094 Z M 186.875 244.851562 C 188.089844 244.960938 189.304688 245.09375 190.519531 245.230469 C 188.921875 246.929688 187.289062 248.589844 185.667969 250.265625 C 183.988281 251.992188 182.335938 253.742188 180.753906 255.558594 C 179.175781 255.476562 177.597656 255.382812 176.019531 255.257812 C 176.722656 254.566406 177.425781 253.875 178.128906 253.1875 C 181.011719 250.371094 183.933594 247.601562 186.875 244.851562 Z M 175.011719 255.179688 C 170.34375 254.789062 165.691406 254.230469 161.046875 253.585938 C 158.75 253.265625 156.453125 252.925781 154.15625 252.578125 C 153.011719 252.402344 151.863281 252.226562 150.71875 252.046875 C 149.707031 251.890625 148.511719 251.84375 147.636719 251.25 C 146.847656 250.710938 146.492188 249.539062 147.378906 248.917969 C 147.753906 248.652344 148.210938 248.519531 148.644531 248.375 C 149.171875 248.199219 149.695312 248.03125 150.226562 247.867188 C 152.34375 247.21875 154.484375 246.667969 156.648438 246.207031 C 161.027344 245.277344 165.480469 244.726562 169.945312 244.476562 C 174.472656 244.222656 179.015625 244.289062 183.542969 244.585938 C 184.46875 244.648438 185.390625 244.726562 186.316406 244.804688 C 184.09375 246.882812 181.878906 248.96875 179.695312 251.082031 C 178.277344 252.449219 176.875 253.828125 175.480469 255.214844 C 175.324219 255.203125 175.167969 255.191406 175.011719 255.179688 Z M 196.960938 259.449219 C 196.214844 263.167969 195.019531 266.8125 193.050781 270.066406 C 191.234375 273.066406 188.753906 275.734375 185.640625 277.402344 C 182.542969 279.0625 178.839844 279.761719 175.386719 278.980469 C 172.09375 278.238281 168.984375 276.039062 167.742188 272.820312 C 166.332031 269.160156 167.703125 265.144531 169.832031 262.070312 C 170.953125 260.460938 172.289062 259.015625 173.664062 257.621094 C 174.316406 256.953125 174.976562 256.292969 175.640625 255.636719 C 177.222656 255.761719 178.8125 255.875 180.398438 255.957031 C 179.746094 256.714844 179.105469 257.484375 178.488281 258.269531 C 176.3125 261.027344 174.359375 263.980469 172.917969 267.191406 C 172.234375 268.71875 171.59375 270.328125 171.25 271.972656 C 170.96875 273.316406 170.875 274.882812 171.605469 276.109375 C 172.414062 277.472656 173.972656 277.835938 175.449219 277.582031 C 177.128906 277.296875 178.699219 276.433594 180.21875 275.703125 C 183.359375 274.191406 186.414062 272.398438 188.570312 269.589844 C 190.664062 266.867188 191.832031 263.566406 192.785156 260.304688 C 193.203125 258.875 193.605469 257.445312 194 256.007812 C 195.191406 255.933594 196.386719 255.835938 197.574219 255.695312 C 197.40625 256.957031 197.210938 258.207031 196.960938 259.449219 Z M 198.539062 250.484375 C 198.652344 249.125 198.75 247.761719 198.859375 246.398438 C 200.644531 246.6875 202.433594 246.996094 204.214844 247.328125 C 206.082031 247.671875 208.0625 247.933594 209.789062 248.765625 C 210.511719 249.113281 211.15625 249.578125 211.691406 250.175781 C 211.6875 250.214844 211.683594 250.253906 211.683594 250.292969 C 208.566406 252.621094 204.875 253.976562 201.082031 254.738281 C 200.078125 254.9375 199.070312 255.101562 198.054688 255.230469 C 198.253906 253.652344 198.40625 252.070312 198.539062 250.484375 Z M 197.339844 246.148438 C 197.707031 246.207031 198.074219 246.269531 198.445312 246.332031 C 198.429688 246.515625 198.417969 246.699219 198.402344 246.886719 C 198.183594 249.6875 197.984375 252.492188 197.625 255.277344 C 196.460938 255.417969 195.289062 255.507812 194.117188 255.578125 C 194.746094 253.273438 195.367188 250.964844 196 248.660156 C 196.238281 247.792969 196.476562 246.925781 196.714844 246.058594 C 196.921875 246.089844 197.128906 246.117188 197.339844 246.148438 Z M 196.480469 245.335938 C 196.457031 245.421875 196.429688 245.511719 196.40625 245.597656 C 195.71875 245.496094 195.03125 245.398438 194.339844 245.304688 C 194.484375 245.027344 194.628906 244.753906 194.769531 244.476562 C 196.214844 241.632812 197.570312 238.742188 198.832031 235.8125 C 198.96875 235.496094 199.105469 235.179688 199.238281 234.863281 C 199.304688 234.746094 199.382812 234.632812 199.449219 234.515625 C 198.460938 238.125 197.46875 241.730469 196.480469 245.335938 Z M 200.136719 233.597656 C 200.074219 233.582031 200.015625 233.554688 199.953125 233.523438 C 199.910156 233.503906 199.867188 233.472656 199.824219 233.453125 C 199.734375 233.410156 199.65625 233.375 199.578125 233.3125 C 199.058594 232.882812 198.84375 232.160156 198.898438 231.503906 C 198.933594 231.09375 199.039062 230.691406 199.183594 230.296875 C 199.804688 231.339844 200.503906 232.335938 201.277344 233.265625 C 200.957031 233.582031 200.550781 233.726562 200.136719 233.597656 Z M 202.085938 232.136719 C 201.933594 232.386719 201.757812 232.6875 201.558594 232.953125 C 200.746094 231.96875 200.023438 230.917969 199.386719 229.8125 C 199.589844 229.332031 199.832031 228.871094 200.050781 228.421875 C 200.167969 228.175781 200.292969 227.933594 200.414062 227.691406 C 201.011719 229.011719 201.699219 230.292969 202.476562 231.515625 Z M 202.71875 231.121094 C 201.941406 229.867188 201.246094 228.566406 200.648438 227.214844 C 200.976562 226.574219 201.308594 225.933594 201.648438 225.300781 C 202.179688 226.792969 202.820312 228.246094 203.582031 229.636719 C 203.59375 229.65625 203.605469 229.667969 203.617188 229.683594 Z M 203.898438 229.230469 L 203.867188 229.285156 C 203.089844 227.847656 202.4375 226.355469 201.914062 224.8125 C 202.289062 224.132812 202.667969 223.453125 203.058594 222.78125 C 203.667969 224.316406 204.277344 225.84375 204.882812 227.378906 C 204.90625 227.433594 204.945312 227.46875 204.988281 227.492188 C 204.625 228.070312 204.261719 228.648438 203.898438 229.230469 Z M 205.230469 227.101562 C 205.21875 227.082031 205.210938 227.0625 205.199219 227.046875 C 204.570312 225.472656 203.945312 223.898438 203.320312 222.320312 C 203.804688 221.492188 204.296875 220.667969 204.800781 219.847656 C 204.785156 219.867188 204.859375 220.023438 204.871094 220.050781 C 204.898438 220.128906 204.925781 220.207031 204.953125 220.289062 C 205.007812 220.441406 205.058594 220.59375 205.113281 220.746094 C 205.21875 221.050781 205.324219 221.351562 205.433594 221.660156 C 205.644531 222.269531 205.855469 222.875 206.070312 223.484375 C 206.167969 223.765625 206.28125 224.039062 206.375 224.320312 C 206.421875 224.464844 206.464844 224.605469 206.5 224.753906 C 206.515625 224.8125 206.550781 224.902344 206.542969 224.960938 C 206.539062 225.007812 206.503906 225.054688 206.480469 225.09375 C 206.179688 225.648438 205.8125 226.175781 205.480469 226.707031 C 205.390625 226.839844 205.3125 226.96875 205.230469 227.101562 Z M 206.859375 224.488281 C 206.269531 222.792969 205.675781 221.089844 205.082031 219.390625 C 205.53125 218.664062 205.988281 217.933594 206.449219 217.210938 C 206.535156 217.074219 206.621094 216.941406 206.707031 216.808594 C 207.449219 218.261719 208.007812 219.800781 208.367188 221.394531 C 208.425781 221.660156 208.828125 221.546875 208.769531 221.285156 C 208.386719 219.585938 207.777344 217.941406 206.96875 216.398438 C 207.554688 215.488281 208.140625 214.578125 208.730469 213.671875 C 209.101562 215.421875 209.59375 217.148438 210.21875 218.828125 C 210.238281 218.882812 210.269531 218.914062 210.308594 218.9375 C 209.167969 220.792969 208.015625 222.640625 206.859375 224.488281 Z M 211.058594 217.734375 C 210.894531 218.003906 210.722656 218.269531 210.558594 218.539062 C 209.921875 216.792969 209.414062 215.003906 209.050781 213.179688 C 209.363281 212.695312 209.671875 212.207031 209.988281 211.722656 C 210.207031 211.390625 210.429688 211.058594 210.652344 210.726562 C 211.019531 212.519531 211.480469 214.292969 212.035156 216.035156 C 212.039062 216.050781 212.050781 216.058594 212.054688 216.070312 C 211.726562 216.625 211.394531 217.179688 211.058594 217.734375 Z M 212.335938 215.589844 C 212.378906 215.515625 212.179688 215.070312 212.148438 214.976562 C 212.082031 214.75 212.015625 214.523438 211.953125 214.296875 C 211.828125 213.851562 211.707031 213.410156 211.59375 212.960938 C 211.371094 212.085938 211.1875 211.195312 210.957031 210.324219 C 210.949219 210.296875 210.941406 210.265625 210.949219 210.238281 C 210.964844 210.171875 211.109375 210.042969 211.152344 209.980469 C 211.230469 209.863281 211.3125 209.746094 211.394531 209.628906 C 211.546875 209.402344 211.703125 209.179688 211.863281 208.957031 C 212.210938 208.46875 212.574219 207.898438 213.027344 207.449219 C 213.238281 209.113281 213.558594 210.761719 214.003906 212.375 C 214.015625 212.414062 214.03125 212.445312 214.054688 212.464844 C 213.511719 213.523438 212.933594 214.5625 212.335938 215.589844 Z M 215.546875 209.253906 C 215.210938 210.175781 214.765625 211.066406 214.324219 211.945312 C 213.90625 210.363281 213.597656 208.757812 213.40625 207.136719 C 213.585938 207.003906 213.777344 206.894531 213.988281 206.816406 C 214.246094 206.726562 214.527344 206.683594 214.800781 206.707031 C 215.335938 206.753906 215.671875 206.964844 215.789062 207.511719 C 215.910156 208.09375 215.742188 208.707031 215.546875 209.253906 Z M 218.125 205.183594 C 217.46875 205.75 216.675781 206.132812 215.835938 206.339844 C 215.546875 205.507812 215.492188 204.582031 215.832031 203.753906 C 216.125 203.039062 216.730469 202.421875 217.472656 202.171875 C 218.214844 201.925781 219.238281 202.082031 219.351562 203.015625 C 219.457031 203.882812 218.734375 204.660156 218.125 205.183594 Z M 218.125 205.183594 " fill-opacity="1" fill-rule="nonzero" style=""/>
  </g>
  <path d="M 219.875 235.449219 C 218.105469 235.3125 216.332031 235.179688 214.558594 235.042969 C 214.167969 232.894531 213.777344 230.742188 213.382812 228.59375 C 213.347656 228.386719 213.03125 228.40625 212.984375 228.59375 C 212.429688 230.667969 211.878906 232.738281 211.328125 234.816406 C 211.324219 234.824219 211.328125 234.835938 211.324219 234.847656 C 209.703125 235.429688 208.082031 236.015625 206.460938 236.597656 C 206.421875 236.613281 206.394531 236.640625 206.367188 236.671875 C 206.226562 236.78125 206.261719 237.058594 206.484375 237.046875 C 208.210938 236.960938 209.9375 236.871094 211.664062 236.789062 C 212.488281 238.957031 213.0625 241.207031 213.390625 243.5 C 213.40625 243.625 213.503906 243.664062 213.601562 243.648438 C 213.714844 243.671875 213.847656 243.582031 213.859375 243.449219 C 214.050781 241.339844 214.242188 239.234375 214.433594 237.125 C 216.300781 236.871094 218.140625 236.457031 219.929688 235.863281 C 220.160156 235.785156 220.109375 235.46875 219.875 235.449219 Z M 219.875 235.449219 " fill-opacity="1" fill-rule="nonzero" style=""/>
  <path d="M 179.734375 230.007812 C 178.804688 229.9375 177.875 229.863281 176.945312 229.792969 C 176.738281 228.667969 176.53125 227.539062 176.328125 226.410156 C 176.308594 226.300781 176.144531 226.3125 176.117188 226.410156 C 175.828125 227.496094 175.539062 228.585938 175.246094 229.671875 C 175.246094 229.679688 175.246094 229.683594 175.246094 229.691406 C 174.394531 229.996094 173.542969 230.300781 172.695312 230.609375 C 172.675781 230.617188 172.65625 230.632812 172.644531 230.648438 C 172.570312 230.703125 172.589844 230.851562 172.707031 230.84375 C 173.613281 230.800781 174.519531 230.753906 175.425781 230.707031 C 175.855469 231.847656 176.160156 233.027344 176.332031 234.230469 C 176.339844 234.296875 176.390625 234.316406 176.441406 234.304688 C 176.5 234.316406 176.570312 234.273438 176.578125 234.199219 C 176.679688 233.09375 176.777344 231.988281 176.878906 230.882812 C 177.859375 230.75 178.824219 230.53125 179.765625 230.21875 C 179.882812 230.183594 179.855469 230.015625 179.734375 230.007812 Z M 179.734375 230.007812 " fill-opacity="1" fill-rule="nonzero" style=""/>
  <path d="M 194.488281 217.554688 C 194.253906 216.730469 193.472656 216.257812 192.652344 216.195312 C 191.5625 216.109375 190.605469 216.773438 189.835938 217.464844 C 189.585938 216.765625 189.246094 216.058594 188.550781 215.714844 C 187.820312 215.347656 187.027344 215.585938 186.582031 216.261719 C 186.070312 217.042969 186.25 218.003906 186.550781 218.824219 C 186.898438 219.777344 187.324219 220.707031 187.777344 221.617188 C 188.296875 222.65625 188.871094 223.671875 189.496094 224.648438 C 189.554688 224.738281 189.6875 224.792969 189.78125 224.722656 C 191.410156 223.546875 192.792969 222.039062 193.808594 220.300781 C 194.277344 219.496094 194.753906 218.503906 194.488281 217.554688 Z M 194.488281 217.554688 " fill-opacity="1" fill-rule="nonzero" style=""/>
  <path d="M 184.4375 205.613281 C 183.355469 205.449219 182.273438 205.289062 181.191406 205.125 C 180.960938 203.886719 180.824219 202.632812 180.785156 201.375 C 180.777344 201.175781 180.527344 201.160156 180.460938 201.328125 C 180.003906 202.476562 179.5 203.601562 178.949219 204.707031 C 177.722656 204.929688 176.496094 205.152344 175.269531 205.378906 C 175.085938 205.414062 175.136719 205.644531 175.269531 205.699219 C 176.292969 206.125 177.359375 206.445312 178.449219 206.667969 C 178.449219 206.671875 178.449219 206.671875 178.449219 206.675781 C 179.03125 208 179.613281 209.324219 180.195312 210.652344 C 180.25 210.777344 180.472656 210.746094 180.496094 210.613281 C 180.703125 209.414062 180.910156 208.21875 181.117188 207.019531 C 181.117188 207.015625 181.117188 207.007812 181.117188 207 C 182.277344 206.777344 183.40625 206.414062 184.476562 205.914062 C 184.597656 205.859375 184.578125 205.632812 184.4375 205.613281 Z M 180.265625 210 L 178.734375 206.507812 C 178.726562 206.492188 178.71875 206.484375 178.710938 206.472656 C 178.699219 206.421875 178.664062 206.375 178.597656 206.359375 C 177.683594 206.179688 176.789062 205.917969 175.917969 205.59375 C 176.914062 205.414062 177.90625 205.230469 178.902344 205.050781 C 178.972656 205.125 179.101562 205.144531 179.160156 205.027344 C 179.640625 204.074219 180.082031 203.101562 180.496094 202.117188 C 180.5625 203.230469 180.699219 204.34375 180.914062 205.441406 C 180.949219 205.609375 181.15625 205.585938 181.21875 205.460938 C 182.078125 205.589844 182.9375 205.71875 183.796875 205.847656 C 182.871094 206.234375 181.910156 206.523438 180.925781 206.707031 C 180.820312 206.722656 180.792969 206.8125 180.8125 206.894531 C 180.808594 206.90625 180.800781 206.917969 180.796875 206.933594 Z M 180.265625 210 " fill-opacity="1" fill-rule="nonzero" style=""/>
  <path d="M 203.269531 202.808594 C 201.808594 202.941406 200.347656 203.039062 198.882812 203.117188 C 199.511719 202.453125 200.15625 201.796875 200.820312 201.167969 C 201.015625 200.984375 200.71875 200.6875 200.527344 200.875 C 199.808594 201.554688 199.113281 202.261719 198.4375 202.980469 C 198.371094 201.425781 198.34375 199.867188 198.355469 198.308594 C 198.359375 198.042969 197.941406 198.042969 197.941406 198.308594 C 197.921875 199.921875 197.953125 201.53125 198.023438 203.140625 C 197.320312 202.449219 196.617188 201.757812 195.914062 201.066406 C 195.722656 200.878906 195.429688 201.175781 195.621094 201.363281 C 196.238281 201.96875 196.855469 202.574219 197.472656 203.179688 C 196.085938 203.238281 194.699219 203.277344 193.3125 203.285156 C 193.046875 203.285156 193.046875 203.703125 193.3125 203.703125 C 194.835938 203.691406 196.355469 203.648438 197.878906 203.582031 C 197.175781 204.355469 196.492188 205.144531 195.839844 205.960938 C 195.671875 206.167969 195.964844 206.464844 196.132812 206.253906 C 196.753906 205.480469 197.402344 204.730469 198.066406 203.996094 C 198.148438 205.585938 198.269531 207.167969 198.4375 208.75 C 198.464844 209.015625 198.882812 209.015625 198.855469 208.75 C 198.695312 207.234375 198.578125 205.710938 198.496094 204.183594 C 199.136719 204.8125 199.773438 205.441406 200.414062 206.070312 C 200.605469 206.257812 200.902344 205.964844 200.710938 205.777344 L 198.457031 203.566406 C 198.457031 203.566406 198.460938 203.5625 198.460938 203.5625 C 200.066406 203.480469 201.667969 203.371094 203.265625 203.226562 C 203.53125 203.199219 203.535156 202.78125 203.269531 202.808594 Z M 203.269531 202.808594 " fill-opacity="1" fill-rule="nonzero" style=""/>
  <path d="M 181.273438 214.628906 C 181.007812 214.628906 181.007812 215.046875 181.273438 215.046875 C 181.542969 215.046875 181.542969 214.628906 181.273438 214.628906 Z M 181.273438 214.628906 " fill-opacity="1" fill-rule="nonzero" style=""/>
  <path d="M 176.019531 211.519531 C 175.753906 211.519531 175.753906 211.9375 176.019531 211.9375 C 176.289062 211.9375 176.289062 211.519531 176.019531 211.519531 Z M 176.019531 211.519531 " fill-opacity="1" fill-rule="nonzero" style=""/>
  <path d="M 179.753906 220.792969 C 179.488281 220.792969 179.488281 221.210938 179.753906 221.210938 C 180.023438 221.210938 180.023438 220.792969 179.753906 220.792969 Z M 179.753906 220.792969 " fill-opacity="1" fill-rule="nonzero" style=""/>
  <path d="M 160.28125 228.238281 C 160.011719 228.238281 160.011719 228.652344 160.28125 228.652344 C 160.546875 228.652344 160.546875 228.238281 160.28125 228.238281 Z M 160.28125 228.238281 " fill-opacity="1" fill-rule="nonzero" style=""/>
  <path d="M 167.164062 225.824219 C 166.898438 225.824219 166.898438 226.242188 167.164062 226.242188 C 167.433594 226.242188 167.433594 225.824219 167.164062 225.824219 Z M 167.164062 225.824219 " fill-opacity="1" fill-rule="nonzero" style=""/>
  <path d="M 196.898438 224.03125 C 196.628906 224.03125 196.628906 224.449219 196.898438 224.449219 C 197.164062 224.449219 197.164062 224.03125 196.898438 224.03125 Z M 196.898438 224.03125 " fill-opacity="1" fill-rule="nonzero" style=""/>
  <path d="M 220.082031 223.265625 C 219.8125 223.265625 219.8125 223.683594 220.082031 223.683594 C 220.347656 223.683594 220.347656 223.265625 220.082031 223.265625 Z M 220.082031 223.265625 " fill-opacity="1" fill-rule="nonzero" style=""/>
  <path d="M 188.75 238.585938 C 188.726562 238.515625 188.691406 238.453125 188.640625 238.398438 C 188.636719 238.394531 188.632812 238.390625 188.625 238.386719 C 188.589844 238.34375 188.542969 238.316406 188.492188 238.300781 C 188.441406 238.273438 188.390625 238.261719 188.332031 238.265625 C 188.273438 238.261719 188.21875 238.273438 188.171875 238.300781 C 188.117188 238.316406 188.074219 238.34375 188.039062 238.386719 C 188.015625 238.414062 187.996094 238.441406 187.972656 238.46875 C 187.933594 238.535156 187.917969 238.605469 187.914062 238.679688 C 187.917969 238.714844 187.921875 238.753906 187.929688 238.792969 C 187.949219 238.863281 187.984375 238.921875 188.039062 238.976562 C 188.042969 238.980469 188.046875 238.984375 188.050781 238.992188 C 188.089844 239.03125 188.132812 239.058594 188.1875 239.078125 C 188.238281 239.101562 188.289062 239.113281 188.347656 239.113281 C 188.402344 239.113281 188.457031 239.101562 188.507812 239.078125 C 188.558594 239.058594 188.601562 239.03125 188.640625 238.992188 C 188.664062 238.960938 188.683594 238.933594 188.707031 238.90625 C 188.742188 238.839844 188.761719 238.769531 188.761719 238.695312 C 188.757812 238.660156 188.753906 238.621094 188.75 238.585938 Z M 188.75 238.585938 " fill-opacity="1" fill-rule="nonzero" style=""/>
  <path d="M 164.386719 235.945312 C 164.367188 235.871094 164.332031 235.8125 164.28125 235.757812 C 164.273438 235.753906 164.269531 235.75 164.265625 235.746094 C 164.226562 235.703125 164.183594 235.675781 164.132812 235.660156 C 164.082031 235.632812 164.027344 235.621094 163.972656 235.625 C 163.914062 235.621094 163.859375 235.632812 163.8125 235.660156 C 163.757812 235.675781 163.714844 235.703125 163.675781 235.746094 C 163.652344 235.773438 163.632812 235.800781 163.613281 235.828125 C 163.574219 235.894531 163.554688 235.964844 163.554688 236.039062 C 163.558594 236.074219 163.5625 236.113281 163.570312 236.148438 C 163.589844 236.222656 163.625 236.28125 163.675781 236.335938 C 163.683594 236.339844 163.6875 236.34375 163.691406 236.351562 C 163.730469 236.390625 163.773438 236.417969 163.824219 236.433594 C 163.875 236.460938 163.929688 236.472656 163.984375 236.46875 C 164.042969 236.472656 164.097656 236.460938 164.144531 236.433594 C 164.199219 236.417969 164.242188 236.390625 164.28125 236.351562 C 164.300781 236.320312 164.324219 236.292969 164.34375 236.265625 C 164.382812 236.199219 164.402344 236.128906 164.402344 236.054688 C 164.398438 236.019531 164.390625 235.980469 164.386719 235.945312 Z M 164.386719 235.945312 " fill-opacity="1" fill-rule="nonzero" style=""/>
  <path d="M 220.285156 229.5 C 220.265625 229.429688 220.230469 229.367188 220.179688 229.316406 C 220.171875 229.308594 220.167969 229.304688 220.164062 229.300781 C 220.125 229.257812 220.082031 229.230469 220.03125 229.214844 C 219.980469 229.1875 219.925781 229.175781 219.871094 229.179688 C 219.8125 229.175781 219.757812 229.1875 219.710938 229.214844 C 219.65625 229.230469 219.613281 229.257812 219.574219 229.300781 C 219.554688 229.328125 219.53125 229.355469 219.511719 229.382812 C 219.472656 229.449219 219.453125 229.519531 219.453125 229.59375 C 219.457031 229.632812 219.460938 229.667969 219.46875 229.707031 C 219.488281 229.777344 219.523438 229.839844 219.574219 229.890625 C 219.582031 229.894531 219.585938 229.898438 219.589844 229.90625 C 219.628906 229.945312 219.671875 229.972656 219.722656 229.992188 C 219.773438 230.015625 219.828125 230.027344 219.882812 230.027344 C 219.941406 230.027344 219.996094 230.015625 220.042969 229.992188 C 220.097656 229.972656 220.140625 229.945312 220.179688 229.90625 C 220.203125 229.878906 220.222656 229.851562 220.242188 229.820312 C 220.28125 229.757812 220.300781 229.6875 220.300781 229.613281 C 220.296875 229.570312 220.292969 229.535156 220.285156 229.5 Z M 220.285156 229.5 " fill-opacity="1" fill-rule="nonzero" style=""/>
  <path d="M 193.40625 232.285156 C 193.386719 232.214844 193.351562 232.152344 193.296875 232.097656 C 193.289062 232.09375 193.285156 232.085938 193.277344 232.078125 C 193.238281 232.035156 193.195312 232.007812 193.140625 231.992188 C 193.089844 231.964844 193.039062 231.953125 192.980469 231.957031 C 192.925781 231.953125 192.871094 231.964844 192.820312 231.992188 C 192.769531 232.007812 192.726562 232.035156 192.6875 232.078125 C 192.664062 232.105469 192.644531 232.132812 192.621094 232.160156 C 192.585938 232.226562 192.566406 232.296875 192.566406 232.371094 C 192.570312 232.410156 192.574219 232.445312 192.578125 232.484375 C 192.601562 232.554688 192.636719 232.617188 192.6875 232.667969 C 192.695312 232.675781 192.703125 232.683594 192.710938 232.691406 C 192.746094 232.730469 192.792969 232.757812 192.84375 232.777344 C 192.894531 232.800781 192.945312 232.8125 193.003906 232.8125 C 193.0625 232.8125 193.117188 232.800781 193.164062 232.777344 C 193.214844 232.757812 193.261719 232.730469 193.296875 232.691406 C 193.320312 232.660156 193.339844 232.632812 193.363281 232.605469 C 193.402344 232.539062 193.417969 232.46875 193.421875 232.394531 C 193.414062 232.355469 193.410156 232.320312 193.40625 232.285156 Z M 193.40625 232.285156 " fill-opacity="1" fill-rule="nonzero" style=""/>
  <path d="M 217.894531 218.4375 C 217.875 218.367188 217.835938 218.304688 217.785156 218.253906 C 217.777344 218.246094 217.769531 218.238281 217.761719 218.230469 C 217.726562 218.191406 217.679688 218.164062 217.628906 218.144531 C 217.578125 218.121094 217.527344 218.109375 217.46875 218.109375 C 217.410156 218.109375 217.355469 218.121094 217.308594 218.144531 C 217.257812 218.164062 217.210938 218.191406 217.175781 218.230469 C 217.152344 218.261719 217.132812 218.289062 217.109375 218.316406 C 217.074219 218.382812 217.054688 218.453125 217.050781 218.527344 C 217.058594 218.5625 217.0625 218.601562 217.066406 218.636719 C 217.085938 218.707031 217.121094 218.769531 217.175781 218.824219 C 217.183594 218.828125 217.191406 218.835938 217.195312 218.84375 C 217.234375 218.886719 217.277344 218.914062 217.332031 218.929688 C 217.382812 218.957031 217.433594 218.96875 217.492188 218.964844 C 217.550781 218.96875 217.601562 218.957031 217.652344 218.929688 C 217.703125 218.914062 217.75 218.886719 217.785156 218.84375 C 217.808594 218.816406 217.828125 218.789062 217.851562 218.761719 C 217.886719 218.695312 217.90625 218.625 217.910156 218.550781 C 217.902344 218.511719 217.898438 218.472656 217.894531 218.4375 Z M 217.894531 218.4375 " fill-opacity="1" fill-rule="nonzero" style=""/>
  <path d="M 174.5625 218.4375 C 174.542969 218.367188 174.507812 218.304688 174.453125 218.253906 C 174.445312 218.246094 174.441406 218.238281 174.433594 218.230469 C 174.394531 218.191406 174.351562 218.164062 174.296875 218.144531 C 174.246094 218.121094 174.195312 218.109375 174.136719 218.109375 C 174.082031 218.109375 174.027344 218.121094 173.976562 218.144531 C 173.925781 218.164062 173.878906 218.191406 173.84375 218.230469 C 173.820312 218.261719 173.800781 218.289062 173.777344 218.316406 C 173.742188 218.382812 173.722656 218.453125 173.71875 218.527344 C 173.726562 218.5625 173.730469 218.601562 173.734375 218.636719 C 173.757812 218.707031 173.792969 218.769531 173.84375 218.824219 C 173.851562 218.828125 173.859375 218.835938 173.867188 218.84375 C 173.902344 218.886719 173.949219 218.914062 174 218.929688 C 174.050781 218.957031 174.101562 218.96875 174.160156 218.964844 C 174.21875 218.96875 174.273438 218.957031 174.320312 218.929688 C 174.371094 218.914062 174.417969 218.886719 174.453125 218.84375 C 174.476562 218.816406 174.496094 218.789062 174.519531 218.761719 C 174.558594 218.695312 174.574219 218.625 174.578125 218.550781 C 174.570312 218.511719 174.566406 218.472656 174.5625 218.4375 Z M 174.5625 218.4375 " fill-opacity="1" fill-rule="nonzero" style=""/>
  <path d="M 189.28125 232.378906 C 189.246094 232.25 189.179688 232.136719 189.085938 232.042969 C 189.035156 232.003906 188.984375 231.960938 188.929688 231.921875 C 188.8125 231.855469 188.683594 231.816406 188.546875 231.816406 L 188.503906 231.816406 C 188.398438 231.816406 188.300781 231.835938 188.210938 231.882812 C 188.117188 231.914062 188.035156 231.96875 187.964844 232.042969 C 187.890625 232.109375 187.835938 232.191406 187.804688 232.289062 C 187.757812 232.378906 187.738281 232.476562 187.742188 232.582031 C 187.75 232.648438 187.757812 232.71875 187.769531 232.785156 C 187.804688 232.914062 187.871094 233.027344 187.964844 233.121094 C 188.015625 233.160156 188.066406 233.203125 188.117188 233.242188 C 188.238281 233.308594 188.367188 233.34375 188.503906 233.34375 L 188.546875 233.34375 C 188.648438 233.347656 188.75 233.328125 188.839844 233.28125 C 188.933594 233.25 189.015625 233.195312 189.085938 233.121094 C 189.160156 233.054688 189.210938 232.972656 189.242188 232.875 C 189.292969 232.785156 189.3125 232.6875 189.308594 232.582031 C 189.300781 232.515625 189.289062 232.445312 189.28125 232.378906 Z M 189.28125 232.378906 " fill-opacity="1" fill-rule="nonzero" style=""/>
  <g clip-path="url(#e1d93c53bc)">
    <path d="M 225.816406 217.90625 C 225.78125 217.777344 225.714844 217.664062 225.621094 217.570312 C 225.570312 217.53125 225.519531 217.488281 225.46875 217.449219 C 225.347656 217.378906 225.21875 217.34375 225.082031 217.34375 L 225.042969 217.34375 C 224.9375 217.339844 224.839844 217.363281 224.746094 217.410156 C 224.652344 217.441406 224.570312 217.496094 224.5 217.570312 C 224.425781 217.636719 224.375 217.71875 224.34375 217.816406 C 224.292969 217.90625 224.273438 218.003906 224.277344 218.109375 C 224.289062 218.175781 224.296875 218.246094 224.304688 218.3125 C 224.339844 218.441406 224.410156 218.554688 224.5 218.648438 C 224.554688 218.6875 224.605469 218.730469 224.65625 218.769531 C 224.773438 218.835938 224.902344 218.871094 225.042969 218.871094 L 225.082031 218.871094 C 225.1875 218.875 225.285156 218.855469 225.375 218.808594 C 225.472656 218.777344 225.554688 218.722656 225.621094 218.648438 C 225.695312 218.582031 225.75 218.5 225.78125 218.402344 C 225.828125 218.3125 225.851562 218.214844 225.847656 218.109375 C 225.835938 218.042969 225.828125 217.972656 225.816406 217.90625 Z M 225.816406 217.90625 " fill-opacity="1" fill-rule="nonzero" style=""/>
  </g>
  <g fill="#ffffff" fill-opacity="1">
    <g transform="translate(27.166262, 238.713278)">
      <g>
        <path d="M 8.746 -72.871 C 8.746 -116.594 37.313 -148.66 73.602 -148.66 C 106.977 -148.66 118.344 -131.316 118.344 -118.055 C 118.344 -97.765 99.87 -86.224 87.649 -75.61 L 72.036 -75.61 C 81.719 -92.69 109.746 -101.616 109.746 -119.219 C 109.746 -136.562 97.941 -146.91 73.602 -146.91 C 43.434 -146.91 21.863 -115.43 21.863 -72.871 C 21.863 -30.316 45.473 1.164 73.602 1.164 C 105.957 1.164 115.137 -23.32 115.137 -23.32 L 116.742 -23.32 L 116.742 -3.789 C 105.082 0 92.258 2.914 73.602 2.914 C 37.312 2.914 8.746 -29.148 8.746 -72.871 Z" style="fill: rgb(0, 0, 0);"/>
      </g>
    </g>
  </g>
  <g fill="#ffffff" fill-opacity="1">
    <g transform="translate(58.234788, 185.595091)">
      <g>
        <path d="M 12.25 -4.140625 L 3.609375 -4.140625 L 1.75 0 L 0.046875 0 L 7.125 -15.5 L 8.75 -15.5 L 15.828125 0 L 14.109375 0 Z M 11.640625 -5.46875 L 7.921875 -13.796875 L 4.203125 -5.46875 Z M 11.640625 -5.46875 " style="fill: rgb(0, 0, 0);"/>
      </g>
    </g>
  </g>
  <g fill="#ffffff" fill-opacity="1">
    <g transform="translate(81.164978, 185.595091)">
      <g>
        <path d="M 13.109375 0 L 9.5625 -4.984375 C 9.164062 -4.941406 8.753906 -4.921875 8.328125 -4.921875 L 4.15625 -4.921875 L 4.15625 0 L 2.53125 0 L 2.53125 -15.5 L 8.328125 -15.5 C 10.304688 -15.5 11.851562 -15.023438 12.96875 -14.078125 C 14.09375 -13.140625 14.65625 -11.84375 14.65625 -10.1875 C 14.65625 -8.976562 14.347656 -7.957031 13.734375 -7.125 C 13.117188 -6.289062 12.242188 -5.6875 11.109375 -5.3125 L 14.90625 0 Z M 8.28125 -6.3125 C 9.8125 -6.3125 10.984375 -6.648438 11.796875 -7.328125 C 12.609375 -8.003906 13.015625 -8.957031 13.015625 -10.1875 C 13.015625 -11.4375 12.609375 -12.394531 11.796875 -13.0625 C 10.984375 -13.738281 9.8125 -14.078125 8.28125 -14.078125 L 4.15625 -14.078125 L 4.15625 -6.3125 Z M 8.28125 -6.3125 " style="fill: rgb(0, 0, 0);"/>
      </g>
    </g>
  </g>
  <g fill="#ffffff" fill-opacity="1">
    <g transform="translate(104.227951, 185.595091)">
      <g>
        <path d="M 9.296875 0.140625 C 7.765625 0.140625 6.375 -0.203125 5.125 -0.890625 C 3.875 -1.578125 2.898438 -2.519531 2.203125 -3.71875 C 1.503906 -4.914062 1.15625 -6.257812 1.15625 -7.75 C 1.15625 -9.238281 1.503906 -10.582031 2.203125 -11.78125 C 2.898438 -12.976562 3.875 -13.914062 5.125 -14.59375 C 6.375 -15.28125 7.765625 -15.625 9.296875 -15.625 C 10.835938 -15.625 12.222656 -15.285156 13.453125 -14.609375 C 14.679688 -13.929688 15.648438 -12.988281 16.359375 -11.78125 C 17.066406 -10.582031 17.421875 -9.238281 17.421875 -7.75 C 17.421875 -6.257812 17.066406 -4.910156 16.359375 -3.703125 C 15.648438 -2.503906 14.679688 -1.5625 13.453125 -0.875 C 12.222656 -0.195312 10.835938 0.140625 9.296875 0.140625 Z M 9.296875 -1.328125 C 10.523438 -1.328125 11.632812 -1.601562 12.625 -2.15625 C 13.613281 -2.707031 14.382812 -3.472656 14.9375 -4.453125 C 15.5 -5.441406 15.78125 -6.539062 15.78125 -7.75 C 15.78125 -8.957031 15.5 -10.050781 14.9375 -11.03125 C 14.382812 -12.019531 13.613281 -12.789062 12.625 -13.34375 C 11.632812 -13.894531 10.523438 -14.171875 9.296875 -14.171875 C 8.078125 -14.171875 6.96875 -13.894531 5.96875 -13.34375 C 4.96875 -12.789062 4.179688 -12.019531 3.609375 -11.03125 C 3.046875 -10.050781 2.765625 -8.957031 2.765625 -7.75 C 2.765625 -6.539062 3.046875 -5.441406 3.609375 -4.453125 C 4.179688 -3.472656 4.96875 -2.707031 5.96875 -2.15625 C 6.96875 -1.601562 8.078125 -1.328125 9.296875 -1.328125 Z M 9.296875 -1.328125 " style="fill: rgb(0, 0, 0);"/>
      </g>
    </g>
  </g>
  <g fill="#ffffff" fill-opacity="1">
    <g transform="translate(129.858411, 185.595091)">
      <g>
        <path d="M 2.53125 -15.5 L 4.15625 -15.5 L 4.15625 -1.421875 L 12.84375 -1.421875 L 12.84375 0 L 2.53125 0 Z M 2.53125 -15.5 " style="fill: rgb(0, 0, 0);"/>
      </g>
    </g>
  </g>
  <g fill="#ffffff" fill-opacity="1">
    <g transform="translate(162.815001, 185.595091)">
      <g>
        <path d="M 2.53125 -15.5 L 4.15625 -15.5 L 4.15625 0 L 2.53125 0 Z M 2.53125 -15.5 " style="fill: rgb(0, 0, 0);"/>
      </g>
    </g>
  </g>
  <g fill="#ffffff" fill-opacity="1">
    <g transform="translate(176.559812, 185.595091)">
      <g>
        <path d="M 15.46875 -15.5 L 15.46875 0 L 14.125 0 L 4.15625 -12.578125 L 4.15625 0 L 2.53125 0 L 2.53125 -15.5 L 3.875 -15.5 L 13.859375 -2.921875 L 13.859375 -15.5 Z M 15.46875 -15.5 " style="fill: rgb(0, 0, 0);"/>
      </g>
    </g>
  </g>
  <g fill="#ffffff" fill-opacity="1">
    <g transform="translate(240.229078, 185.595091)">
      <g>
        <path d="M 8.765625 0.140625 C 6.753906 0.140625 5.1875 -0.4375 4.0625 -1.59375 C 2.945312 -2.75 2.390625 -4.425781 2.390625 -6.625 L 2.390625 -15.5 L 4.03125 -15.5 L 4.03125 -6.6875 C 4.03125 -4.882812 4.4375 -3.539062 5.25 -2.65625 C 6.0625 -1.769531 7.234375 -1.328125 8.765625 -1.328125 C 10.316406 -1.328125 11.5 -1.769531 12.3125 -2.65625 C 13.125 -3.539062 13.53125 -4.882812 13.53125 -6.6875 L 13.53125 -15.5 L 15.125 -15.5 L 15.125 -6.625 C 15.125 -4.425781 14.566406 -2.75 13.453125 -1.59375 C 12.335938 -0.4375 10.773438 0.140625 8.765625 0.140625 Z M 8.765625 0.140625 " style="fill: rgb(0, 0, 0);"/>
      </g>
    </g>
  </g>
  <g fill="#ffffff" fill-opacity="1">
    <g transform="translate(264.81928, 185.595091)">
      <g>
        <path d="M 2.53125 -15.5 L 4.15625 -15.5 L 4.15625 0 L 2.53125 0 Z M 2.53125 -15.5 " style="fill: rgb(0, 0, 0);"/>
      </g>
    </g>
  </g>
  <g fill="#ffffff" fill-opacity="1">
    <g transform="translate(278.564086, 185.595091)">
      <g>
        <path d="M 6.796875 0.140625 C 5.640625 0.140625 4.535156 -0.0390625 3.484375 -0.40625 C 2.429688 -0.78125 1.617188 -1.269531 1.046875 -1.875 L 1.6875 -3.140625 C 2.25 -2.578125 2.992188 -2.125 3.921875 -1.78125 C 4.847656 -1.4375 5.804688 -1.265625 6.796875 -1.265625 C 8.179688 -1.265625 9.21875 -1.519531 9.90625 -2.03125 C 10.601562 -2.539062 10.953125 -3.195312 10.953125 -4 C 10.953125 -4.625 10.765625 -5.117188 10.390625 -5.484375 C 10.015625 -5.859375 9.550781 -6.144531 9 -6.34375 C 8.457031 -6.539062 7.703125 -6.757812 6.734375 -7 C 5.566406 -7.289062 4.632812 -7.570312 3.9375 -7.84375 C 3.25 -8.125 2.65625 -8.539062 2.15625 -9.09375 C 1.664062 -9.65625 1.421875 -10.414062 1.421875 -11.375 C 1.421875 -12.15625 1.625 -12.867188 2.03125 -13.515625 C 2.445312 -14.160156 3.082031 -14.671875 3.9375 -15.046875 C 4.789062 -15.429688 5.851562 -15.625 7.125 -15.625 C 8.007812 -15.625 8.875 -15.503906 9.71875 -15.265625 C 10.570312 -15.023438 11.3125 -14.691406 11.9375 -14.265625 L 11.375 -12.953125 C 10.726562 -13.378906 10.035156 -13.695312 9.296875 -13.90625 C 8.554688 -14.125 7.832031 -14.234375 7.125 -14.234375 C 5.769531 -14.234375 4.75 -13.972656 4.0625 -13.453125 C 3.375 -12.929688 3.03125 -12.253906 3.03125 -11.421875 C 3.03125 -10.804688 3.21875 -10.304688 3.59375 -9.921875 C 3.96875 -9.546875 4.441406 -9.257812 5.015625 -9.0625 C 5.585938 -8.863281 6.351562 -8.644531 7.3125 -8.40625 C 8.445312 -8.132812 9.363281 -7.859375 10.0625 -7.578125 C 10.757812 -7.304688 11.351562 -6.894531 11.84375 -6.34375 C 12.332031 -5.789062 12.578125 -5.039062 12.578125 -4.09375 C 12.578125 -3.3125 12.363281 -2.597656 11.9375 -1.953125 C 11.519531 -1.316406 10.875 -0.804688 10 -0.421875 C 9.132812 -0.046875 8.066406 0.140625 6.796875 0.140625 Z M 6.796875 0.140625 " style="fill: rgb(0, 0, 0);"/>
      </g>
    </g>
  </g>
  <g fill="#ffffff" fill-opacity="1">
    <g transform="translate(299.236658, 185.595091)">
      <g>
        <path d="M 2.53125 -15.5 L 4.15625 -15.5 L 4.15625 0 L 2.53125 0 Z M 2.53125 -15.5 " style="fill: rgb(0, 0, 0);"/>
      </g>
    </g>
  </g>
  <g fill="#ffffff" fill-opacity="1">
    <g transform="translate(312.981461, 185.595091)">
      <g>
        <path d="M 15.46875 -15.5 L 15.46875 0 L 14.125 0 L 4.15625 -12.578125 L 4.15625 0 L 2.53125 0 L 2.53125 -15.5 L 3.875 -15.5 L 13.859375 -2.921875 L 13.859375 -15.5 Z M 15.46875 -15.5 " style="fill: rgb(0, 0, 0);"/>
      </g>
    </g>
  </g>
  <g fill="#ffffff" fill-opacity="1">
    <g transform="translate(338.036459, 185.595091)">
      <g>
        <path d="M 13.484375 -1.421875 L 13.484375 0 L 2.53125 0 L 2.53125 -15.5 L 13.15625 -15.5 L 13.15625 -14.078125 L 4.15625 -14.078125 L 4.15625 -8.5625 L 12.171875 -8.5625 L 12.171875 -7.171875 L 4.15625 -7.171875 L 4.15625 -1.421875 Z M 13.484375 -1.421875 " style="fill: rgb(0, 0, 0);"/>
      </g>
    </g>
  </g>
</svg>